<?xml version="1.0" standalone="no"?>
<!DOCTYPE svg PUBLIC "-//W3C//DTD SVG 20010904//EN"
 "http://www.w3.org/TR/2001/REC-SVG-20010904/DTD/svg10.dtd">
<svg version="1.0" xmlns="http://www.w3.org/2000/svg"
 width="754.000000pt" height="754.000000pt" viewBox="0 0 754.000000 754.000000"
 preserveAspectRatio="xMidYMid meet">
<metadata>
Created by potrace 1.14, written by Peter Selinger 2001-2017
</metadata>
<g transform="translate(0.000000,754.000000) scale(0.100000,-0.100000)"
fill="#000000" stroke="none">
<path d="M3372 7524 c-460 -50 -876 -171 -1283 -374 -834 -415 -1492 -1132
-1832 -1995 -178 -453 -257 -877 -257 -1385 0 -337 30 -601 101 -893 262
-1078 991 -1990 1987 -2487 537 -267 1066 -390 1682 -390 506 0 938 80 1385
257 866 342 1579 997 1995 1831 206 414 325 826 375 1297 19 184 19 586 0 770
-94 887 -472 1675 -1101 2297 -623 616 -1394 980 -2269 1073 -175 18 -611 18
-783 -1z"/>
</g>
</svg>
